<svg xmlns:dc="http://purl.org/dc/elements/1.1/" xmlns:cc="http://creativecommons.org/ns#" xmlns:rdf="http://www.w3.org/1999/02/22-rdf-syntax-ns#" xmlns:svg="http://www.w3.org/2000/svg" xmlns="http://www.w3.org/2000/svg" xmlns:sodipodi="http://sodipodi.sourceforge.net/DTD/sodipodi-0.dtd" xmlns:inkscape="http://www.inkscape.org/namespaces/inkscape" version="1.1" x="0px" y="0px" viewBox="0 0 100 125"><g transform="translate(0,-952.36218)"><path style="font-size:medium;font-style:normal;font-variant:normal;font-weight:normal;font-stretch:normal;text-indent:0;text-align:start;text-decoration:none;line-height:normal;letter-spacing:normal;word-spacing:normal;text-transform:none;direction:ltr;block-progression:tb;writing-mode:lr-tb;text-anchor:start;baseline-shift:baseline;opacity:1;color:#000000;fill:#000000;fill-opacity:1;stroke:none;stroke-width:6;marker:none;visibility:visible;display:inline;overflow:visible;enable-background:accumulate;font-family:Sans;-inkscape-font-specification:Sans" d="M 50 9 C 25.194027 9 5 29.02039 5 53.6875 C 5 68.9087 12.695405 82.40295 24.40625 90.46875 A 3.0003 3.0003 0 0 0 26.09375 91 L 73.90625 91 A 3.0003 3.0003 0 0 0 75.59375 90.46875 C 87.304605 82.40295 95 68.9087 95 53.6875 C 95 29.02039 74.805973 9 50 9 z M 47 15.125 L 47 23 A 3.0003 3.0003 0 1 0 53 23 L 53 15.125 C 57.985475 15.499742 62.719337 16.791543 67 18.84375 L 65.4375 21.4375 A 3.0003 3.0003 0 1 0 70.5625 24.53125 L 72.15625 21.875 C 76.061639 24.552513 79.466541 27.90059 82.15625 31.78125 L 74.46875 36.40625 A 3.0003 3.0003 0 1 0 77.53125 41.5625 L 85.1875 36.96875 C 87.257176 41.257762 88.559303 46.007204 88.90625 51 L 85 51 A 3.0003 3.0003 0 0 0 84.6875 51 A 3.0040663 3.0040663 0 1 0 85 57 L 88.84375 57 C 88.446422 61.647281 87.22038 66.065822 85.3125 70.09375 L 77.53125 65.40625 A 3.0003 3.0003 0 0 0 75.8125 64.96875 A 3.0003 3.0003 0 0 0 74.46875 70.5625 L 82.34375 75.28125 C 79.780337 79.046397 76.57527 82.32925 72.875 85 L 27.125 85 C 23.424733 82.32925 20.219663 79.046397 17.65625 75.28125 L 25.53125 70.5625 A 3.0003 3.0003 0 0 0 23.78125 64.96875 A 3.0003 3.0003 0 0 0 22.46875 65.40625 L 14.6875 70.09375 C 12.779619 66.065822 11.553579 61.647281 11.15625 57 L 15 57 A 3.0003 3.0003 0 1 0 15 51 L 11.09375 51 C 11.440697 46.007204 12.742824 41.257762 14.8125 36.96875 L 22.46875 41.5625 A 3.0003 3.0003 0 1 0 25.53125 36.40625 L 17.84375 31.78125 C 20.533459 27.90059 23.938361 24.552513 27.84375 21.875 L 29.4375 24.53125 A 3.0003 3.0003 0 1 0 34.5625 21.4375 L 33 18.84375 C 37.280663 16.791543 42.014525 15.499742 47 15.125 z M 62 29.9375 A 3.0003 3.0003 0 0 0 59.375 31.53125 L 50.65625 47.03125 C 50.439168 47.010359 50.222604 47 50 47 C 46.269104 47 43.25 50.014456 43.25 53.71875 C 43.25 57.423044 46.269104 60.40625 50 60.40625 C 53.730896 60.40625 56.75 57.423044 56.75 53.71875 C 56.75 52.437493 56.377752 51.23695 55.75 50.21875 L 64.625 34.46875 A 3.0003 3.0003 0 0 0 62 29.9375 z " transform="translate(0,952.36218)"/></g><text x="0" y="115" fill="#000000" font-size="5px" font-weight="bold" font-family="'Helvetica Neue', Helvetica, Arial-Unicode, Arial, Sans-serif">Created by romzicon</text><text x="0" y="120" fill="#000000" font-size="5px" font-weight="bold" font-family="'Helvetica Neue', Helvetica, Arial-Unicode, Arial, Sans-serif">from the Noun Project</text></svg>